<svg viewBox="0 0 680 372" width="680" height="372" xmlns="http://www.w3.org/2000/svg">
<rect width="680" height="372" fill="#080d1a"/>
<rect x="8" y="8" width="664" height="48" rx="5" fill="#0a1428" stroke="#00d4aa44" stroke-width="0.5"/>
<circle cx="26" cy="28" r="5" fill="#00d4aa"/><circle cx="26" cy="28" r="3" fill="#080d1a"/><circle cx="26" cy="28" r="1.5" fill="#00d4aa"/>
<text x="40" y="24" fill="#00d4aa" font-size="13" font-family="monospace" font-weight="700" letter-spacing="2">FLOWPILOT OPERATIONAL</text>
<text x="40" y="44" fill="#00d4aacc" font-size="9" font-family="monospace" letter-spacing="1">AI-Assisted Specialist Delivery Operations</text>
<rect x="570" y="16" width="40" height="14" rx="3" fill="#00d4aa1a" stroke="#00d4aa44" stroke-width="0.5"/>
<text x="590" y="23" text-anchor="middle" dominant-baseline="central" fill="#00d4aa" font-size="7" font-family="monospace">LIVE</text>
<rect x="616" y="16" width="52" height="14" rx="3" fill="#00d4aa1a" stroke="#00d4aa44" stroke-width="0.5"/>
<text x="642" y="23" text-anchor="middle" dominant-baseline="central" fill="#00d4aa" font-size="7" font-family="monospace">13 ACTIVE</text>
<rect x="8" y="62" width="664" height="18" rx="3" fill="#00d4aa05" stroke="#00d4aa1a" stroke-width="0.5"/>
<circle cx="20" cy="71" r="2" fill="#00d4aa88"/>
<text x="28" y="71" dominant-baseline="central" fill="#00d4aa88" font-size="7.5" font-family="monospace" letter-spacing="0.5">HUMAN GOVERNANCE AUTHORITY  →  ORCHESTRATION COORDINATOR  →  INTERNAL REVIEW GATE  →  GOVERNED DELIVERY</text>

<rect x="10" y="88" width="159" height="52" rx="3" fill="#00d4aa0d" stroke="#00d4aa33" stroke-width="0.5"/>
<rect x="10" y="88" width="2" height="52" rx="1" fill="#00d4aa"/>
<text x="18" y="102" dominant-baseline="central" fill="#00d4aa" font-size="8.5" font-family="monospace">Enterprise Retrieval</text>
<text x="18" y="118" dominant-baseline="central" fill="#8899aa" font-size="7" font-family="monospace">ENGINEERING</text>
<text x="18" y="131" dominant-baseline="central" fill="#00d4aa" font-size="7" font-family="monospace">◉ OPERATIONAL</text>

<rect x="177" y="88" width="159" height="52" rx="3" fill="#00d4aa0d" stroke="#00d4aa33" stroke-width="0.5"/>
<rect x="177" y="88" width="2" height="52" rx="1" fill="#00d4aa"/>
<text x="185" y="102" dominant-baseline="central" fill="#00d4aa" font-size="8.5" font-family="monospace">Vendor Onboarding</text>
<text x="185" y="118" dominant-baseline="central" fill="#8899aa" font-size="7" font-family="monospace">ENGINEERING</text>
<text x="185" y="131" dominant-baseline="central" fill="#00d4aa" font-size="7" font-family="monospace">◉ OPERATIONAL</text>

<rect x="344" y="88" width="159" height="52" rx="3" fill="#f59e0b0d" stroke="#f59e0b33" stroke-width="0.5"/>
<rect x="344" y="88" width="2" height="52" rx="1" fill="#f59e0b"/>
<text x="352" y="102" dominant-baseline="central" fill="#f59e0b" font-size="8.5" font-family="monospace">Security</text>
<text x="352" y="118" dominant-baseline="central" fill="#8899aa" font-size="7" font-family="monospace">QUALITY</text>
<text x="352" y="131" dominant-baseline="central" fill="#f59e0b" font-size="7" font-family="monospace">◉ OPERATIONAL</text>

<rect x="511" y="88" width="159" height="52" rx="3" fill="#f59e0b0d" stroke="#f59e0b33" stroke-width="0.5"/>
<rect x="511" y="88" width="2" height="52" rx="1" fill="#f59e0b"/>
<text x="519" y="102" dominant-baseline="central" fill="#f59e0b" font-size="8.5" font-family="monospace">QA</text>
<text x="519" y="118" dominant-baseline="central" fill="#8899aa" font-size="7" font-family="monospace">QUALITY</text>
<text x="519" y="131" dominant-baseline="central" fill="#f59e0b" font-size="7" font-family="monospace">◉ OPERATIONAL</text>

<rect x="10" y="148" width="159" height="52" rx="3" fill="#4299e10d" stroke="#4299e133" stroke-width="0.5"/>
<rect x="10" y="148" width="2" height="52" rx="1" fill="#4299e1"/>
<text x="18" y="162" dominant-baseline="central" fill="#4299e1" font-size="8.5" font-family="monospace">Infrastructure</text>
<text x="18" y="178" dominant-baseline="central" fill="#8899aa" font-size="7" font-family="monospace">OPERATIONS</text>
<text x="18" y="191" dominant-baseline="central" fill="#4299e1" font-size="7" font-family="monospace">◉ OPERATIONAL</text>

<rect x="177" y="148" width="159" height="52" rx="3" fill="#4299e10d" stroke="#4299e133" stroke-width="0.5"/>
<rect x="177" y="148" width="2" height="52" rx="1" fill="#4299e1"/>
<text x="185" y="162" dominant-baseline="central" fill="#4299e1" font-size="8.5" font-family="monospace">DevOps</text>
<text x="185" y="178" dominant-baseline="central" fill="#8899aa" font-size="7" font-family="monospace">OPERATIONS</text>
<text x="185" y="191" dominant-baseline="central" fill="#4299e1" font-size="7" font-family="monospace">◉ OPERATIONAL</text>

<rect x="344" y="148" width="159" height="52" rx="3" fill="#9f7aea0d" stroke="#9f7aea33" stroke-width="0.5"/>
<rect x="344" y="148" width="2" height="52" rx="1" fill="#9f7aea"/>
<text x="352" y="162" dominant-baseline="central" fill="#9f7aea" font-size="8.5" font-family="monospace">Frontend Experience</text>
<text x="352" y="178" dominant-baseline="central" fill="#8899aa" font-size="7" font-family="monospace">PLATFORM</text>
<text x="352" y="191" dominant-baseline="central" fill="#9f7aea" font-size="7" font-family="monospace">◉ OPERATIONAL</text>

<rect x="511" y="148" width="159" height="52" rx="3" fill="#9f7aea0d" stroke="#9f7aea33" stroke-width="0.5"/>
<rect x="511" y="148" width="2" height="52" rx="1" fill="#9f7aea"/>
<text x="519" y="162" dominant-baseline="central" fill="#9f7aea" font-size="8.5" font-family="monospace">Middleware</text>
<text x="519" y="178" dominant-baseline="central" fill="#8899aa" font-size="7" font-family="monospace">PLATFORM</text>
<text x="519" y="191" dominant-baseline="central" fill="#9f7aea" font-size="7" font-family="monospace">◉ OPERATIONAL</text>

<rect x="10" y="208" width="159" height="52" rx="3" fill="#48bb780d" stroke="#48bb7833" stroke-width="0.5"/>
<rect x="10" y="208" width="2" height="52" rx="1" fill="#48bb78"/>
<text x="18" y="222" dominant-baseline="central" fill="#48bb78" font-size="8.5" font-family="monospace">Database</text>
<text x="18" y="238" dominant-baseline="central" fill="#8899aa" font-size="7" font-family="monospace">DATA</text>
<text x="18" y="251" dominant-baseline="central" fill="#48bb78" font-size="7" font-family="monospace">◉ OPERATIONAL</text>

<rect x="177" y="208" width="159" height="52" rx="3" fill="#48bb780d" stroke="#48bb7833" stroke-width="0.5"/>
<rect x="177" y="208" width="2" height="52" rx="1" fill="#48bb78"/>
<text x="185" y="222" dominant-baseline="central" fill="#48bb78" font-size="8.5" font-family="monospace">MLOps</text>
<text x="185" y="238" dominant-baseline="central" fill="#8899aa" font-size="7" font-family="monospace">DATA</text>
<text x="185" y="251" dominant-baseline="central" fill="#48bb78" font-size="7" font-family="monospace">◉ OPERATIONAL</text>

<rect x="344" y="208" width="159" height="52" rx="3" fill="#ed89360d" stroke="#ed893633" stroke-width="0.5"/>
<rect x="344" y="208" width="2" height="52" rx="1" fill="#ed8936"/>
<text x="352" y="222" dominant-baseline="central" fill="#ed8936" font-size="8.5" font-family="monospace">Analyst</text>
<text x="352" y="238" dominant-baseline="central" fill="#8899aa" font-size="7" font-family="monospace">INSIGHT</text>
<text x="352" y="251" dominant-baseline="central" fill="#ed8936" font-size="7" font-family="monospace">◉ OPERATIONAL</text>

<rect x="511" y="208" width="159" height="52" rx="3" fill="#ed89360d" stroke="#ed893633" stroke-width="0.5"/>
<rect x="511" y="208" width="2" height="52" rx="1" fill="#ed8936"/>
<text x="519" y="222" dominant-baseline="central" fill="#ed8936" font-size="8.5" font-family="monospace">Arch. Knowledge</text>
<text x="519" y="238" dominant-baseline="central" fill="#8899aa" font-size="7" font-family="monospace">INSIGHT</text>
<text x="519" y="251" dominant-baseline="central" fill="#ed8936" font-size="7" font-family="monospace">◉ OPERATIONAL</text>

<rect x="10" y="268" width="159" height="52" rx="3" fill="#ed89360d" stroke="#ed893633" stroke-width="0.5"/>
<rect x="10" y="268" width="2" height="52" rx="1" fill="#ed8936"/>
<text x="18" y="282" dominant-baseline="central" fill="#ed8936" font-size="8.5" font-family="monospace">Analytics</text>
<text x="18" y="298" dominant-baseline="central" fill="#8899aa" font-size="7" font-family="monospace">INSIGHT</text>
<text x="18" y="311" dominant-baseline="central" fill="#ed8936" font-size="7" font-family="monospace">◉ OPERATIONAL</text>

<text x="185" y="285" dominant-baseline="central" fill="#8899aa" font-size="8" font-family="monospace">All output is human-governed and passes</text>
<text x="185" y="302" dominant-baseline="central" fill="#8899aa" font-size="8" font-family="monospace">through internal review before delivery.</text>

<rect x="8" y="328" width="664" height="18" rx="3" fill="#0a1428" stroke="#1a2540" stroke-width="0.5"/>
<text x="340" y="337" text-anchor="middle" dominant-baseline="central" fill="#8899aa" font-size="7.5" font-family="monospace" letter-spacing="1">GOVERNED AI-ASSISTED ENTERPRISE DELIVERY · NOT AUTONOMOUS AI</text>

<circle cx="16" cy="358" r="4" fill="#00d4aa22" stroke="#00d4aa" stroke-width="0.5"/>
<text x="24" y="358" dominant-baseline="central" fill="#8899aa" font-size="7" font-family="monospace">Engineering</text>
<circle cx="108" cy="358" r="4" fill="#f59e0b22" stroke="#f59e0b" stroke-width="0.5"/>
<text x="116" y="358" dominant-baseline="central" fill="#8899aa" font-size="7" font-family="monospace">Quality</text>
<circle cx="184" cy="358" r="4" fill="#4299e122" stroke="#4299e1" stroke-width="0.5"/>
<text x="192" y="358" dominant-baseline="central" fill="#8899aa" font-size="7" font-family="monospace">Operations</text>
<circle cx="276" cy="358" r="4" fill="#9f7aea22" stroke="#9f7aea" stroke-width="0.5"/>
<text x="284" y="358" dominant-baseline="central" fill="#8899aa" font-size="7" font-family="monospace">Platform</text>
<circle cx="348" cy="358" r="4" fill="#48bb7822" stroke="#48bb78" stroke-width="0.5"/>
<text x="356" y="358" dominant-baseline="central" fill="#8899aa" font-size="7" font-family="monospace">Data</text>
<circle cx="404" cy="358" r="4" fill="#ed893622" stroke="#ed8936" stroke-width="0.5"/>
<text x="412" y="358" dominant-baseline="central" fill="#8899aa" font-size="7" font-family="monospace">Insight</text>
</svg>
