<svg viewBox="0 0 960 660" width="960" height="660" xmlns="http://www.w3.org/2000/svg">
<rect width="960" height="660" fill="#0d1117"/>

<!-- Top nav bar -->
<rect x="0" y="0" width="960" height="36" fill="#0d1117" stroke="#1e2d40" stroke-width="0.5"/>
<circle cx="16" cy="18" r="4" fill="#00d4aa"/>
<text x="28" y="18" dominant-baseline="central" fill="#e2e8f0" font-family="monospace" font-size="11" font-weight="700" letter-spacing="1">FLOWPILOT</text>
<text x="110" y="18" dominant-baseline="central" fill="#4a5568" font-family="monospace" font-size="9">trace_id: adr-017-repo-strategy</text>
<text x="870" y="18" dominant-baseline="central" fill="#4299e1" font-family="monospace" font-size="9" font-weight="700" letter-spacing="1">ARCHITECTURE</text>

<!-- Page title -->
<text x="24" y="64" fill="#e2e8f0" font-family="monospace" font-size="20" font-weight="700" letter-spacing="2">REPOSITORY STRATEGY</text>
<rect x="290" y="50" width="110" height="20" rx="3" fill="#00d4aa22" stroke="#00d4aa" stroke-width="0.8"/>
<text x="345" y="60" text-anchor="middle" dominant-baseline="central" fill="#00d4aa" font-family="monospace" font-size="8" font-weight="700" letter-spacing="1">◉ ADR-017</text>
<text x="24" y="84" fill="#4a5568" font-family="monospace" font-size="10">Polyrepo vs Monorepo vs Hybrid · FlowPilot · NSCS B.V. · May 2026</text>

<!-- Dimension column header -->
<rect x="14" y="100" width="230" height="30" rx="4" fill="#141c2e" stroke="#1e2d40" stroke-width="0.5"/>
<text x="24" y="115" dominant-baseline="central" fill="#4a5568" font-family="monospace" font-size="8" letter-spacing="2">DIMENSION</text>

<!-- Monorepo column header -->
<rect x="252" y="100" width="210" height="30" rx="4" fill="#141c2e" stroke="#4299e144" stroke-width="0.8"/>
<rect x="252" y="100" width="3" height="30" rx="1" fill="#4299e1"/>
<text x="290" y="115" dominant-baseline="central" fill="#4299e1" font-family="monospace" font-size="10" font-weight="700" letter-spacing="1">MONOREPO</text>

<!-- Polyrepo column header — winner -->
<rect x="470" y="100" width="210" height="30" rx="4" fill="#00d4aa0d" stroke="#00d4aa" stroke-width="1.2"/>
<rect x="470" y="100" width="3" height="30" rx="1" fill="#00d4aa"/>
<text x="508" y="108" dominant-baseline="central" fill="#00d4aa" font-family="monospace" font-size="10" font-weight="700" letter-spacing="1">POLYREPO</text>
<text x="508" y="122" dominant-baseline="central" fill="#00d4aa88" font-family="monospace" font-size="7" letter-spacing="1">CURRENT · SELECTED</text>

<!-- Hybrid column header -->
<rect x="688" y="100" width="258" height="30" rx="4" fill="#141c2e" stroke="#9f7aea44" stroke-width="0.8"/>
<rect x="688" y="100" width="3" height="30" rx="1" fill="#9f7aea"/>
<text x="726" y="115" dominant-baseline="central" fill="#9f7aea" font-family="monospace" font-size="10" font-weight="700" letter-spacing="1">HYBRID · NX/TURBOREPO</text>

<!-- Helper macro: rows start at y=140, height=64, gap=6 -->

<!-- ROW 1: Skills & config -->
<rect x="14" y="140" width="230" height="64" rx="3" fill="#141c2e" stroke="#1e2d40" stroke-width="0.5"/>
<text x="24" y="158" dominant-baseline="central" fill="#94a3b8" font-family="monospace" font-size="9" letter-spacing="1">01 · SKILLS &amp; CONFIG</text>
<text x="24" y="178" dominant-baseline="central" fill="#4a5568" font-family="monospace" font-size="8">Central governance</text>

<rect x="252" y="140" width="210" height="64" rx="3" fill="#4299e10d" stroke="#4299e133" stroke-width="0.5"/>
<rect x="252" y="140" width="2" height="64" fill="#4299e1"/>
<rect x="350" y="148" width="60" height="16" rx="3" fill="#00d4aa22" stroke="#00d4aa" stroke-width="0.5"/>
<text x="380" y="156" text-anchor="middle" dominant-baseline="central" fill="#00d4aa" font-family="monospace" font-size="7" font-weight="700">✅ WIN</text>
<text x="262" y="175" dominant-baseline="central" fill="#4299e1" font-family="monospace" font-size="9">One central location</text>
<text x="262" y="192" dominant-baseline="central" fill="#4299e155" font-family="monospace" font-size="8">No sync needed</text>

<rect x="470" y="140" width="210" height="64" rx="3" fill="#f59e0b0d" stroke="#f59e0b33" stroke-width="0.5"/>
<rect x="470" y="140" width="2" height="64" fill="#00d4aa"/>
<rect x="568" y="148" width="60" height="16" rx="3" fill="#f59e0b22" stroke="#f59e0b" stroke-width="0.5"/>
<text x="598" y="156" text-anchor="middle" dominant-baseline="central" fill="#f59e0b" font-family="monospace" font-size="7" font-weight="700">❌ RISK</text>
<text x="480" y="175" dominant-baseline="central" fill="#f59e0b" font-family="monospace" font-size="9">Duplicated per repo</text>
<text x="480" y="192" dominant-baseline="central" fill="#f59e0b55" font-family="monospace" font-size="8">Mitigated by sync script</text>

<rect x="688" y="140" width="258" height="64" rx="3" fill="#9f7aea0d" stroke="#9f7aea33" stroke-width="0.5"/>
<rect x="688" y="140" width="2" height="64" fill="#9f7aea"/>
<rect x="880" y="148" width="60" height="16" rx="3" fill="#00d4aa22" stroke="#00d4aa" stroke-width="0.5"/>
<text x="910" y="156" text-anchor="middle" dominant-baseline="central" fill="#00d4aa" font-family="monospace" font-size="7" font-weight="700">✅ WIN</text>
<text x="698" y="175" dominant-baseline="central" fill="#9f7aea" font-family="monospace" font-size="9">Central + per-package</text>
<text x="698" y="192" dominant-baseline="central" fill="#9f7aea55" font-family="monospace" font-size="8">Override possible</text>

<!-- ROW 2: Multi-cloud -->
<rect x="14" y="212" width="230" height="64" rx="3" fill="#141c2e" stroke="#1e2d40" stroke-width="0.5"/>
<text x="24" y="230" dominant-baseline="central" fill="#94a3b8" font-family="monospace" font-size="9" letter-spacing="1">02 · MULTI-CLOUD</text>
<text x="24" y="250" dominant-baseline="central" fill="#4a5568" font-family="monospace" font-size="8">Deployment flexibility</text>

<rect x="252" y="212" width="210" height="64" rx="3" fill="#f59e0b08" stroke="#f59e0b22" stroke-width="0.5"/>
<rect x="252" y="212" width="2" height="64" fill="#f59e0b"/>
<rect x="350" y="220" width="60" height="16" rx="3" fill="#f59e0b22" stroke="#f59e0b" stroke-width="0.5"/>
<text x="380" y="228" text-anchor="middle" dominant-baseline="central" fill="#f59e0b" font-family="monospace" font-size="7" font-weight="700">❌ WEAK</text>
<text x="262" y="247" dominant-baseline="central" fill="#f59e0b" font-family="monospace" font-size="9">Needs discipline</text>
<text x="262" y="264" dominant-baseline="central" fill="#f59e0b55" font-family="monospace" font-size="8">One repo — clouds mixed</text>

<rect x="470" y="212" width="210" height="64" rx="3" fill="#00d4aa0d" stroke="#00d4aa33" stroke-width="0.5"/>
<rect x="470" y="212" width="2" height="64" fill="#00d4aa"/>
<rect x="568" y="220" width="60" height="16" rx="3" fill="#00d4aa22" stroke="#00d4aa" stroke-width="0.5"/>
<text x="598" y="228" text-anchor="middle" dominant-baseline="central" fill="#00d4aa" font-family="monospace" font-size="7" font-weight="700">✅ WIN</text>
<text x="480" y="247" dominant-baseline="central" fill="#00d4aa" font-family="monospace" font-size="9">Natural per-repo targets</text>
<text x="480" y="264" dominant-baseline="central" fill="#00d4aa55" font-family="monospace" font-size="8">Azure, AWS — isolated</text>

<rect x="688" y="212" width="258" height="64" rx="3" fill="#9f7aea0d" stroke="#9f7aea33" stroke-width="0.5"/>
<rect x="688" y="212" width="2" height="64" fill="#9f7aea"/>
<rect x="880" y="220" width="60" height="16" rx="3" fill="#00d4aa22" stroke="#00d4aa" stroke-width="0.5"/>
<text x="910" y="228" text-anchor="middle" dominant-baseline="central" fill="#00d4aa" font-family="monospace" font-size="7" font-weight="700">✅ WIN</text>
<text x="698" y="247" dominant-baseline="central" fill="#9f7aea" font-family="monospace" font-size="9">Per-package targets</text>
<text x="698" y="264" dominant-baseline="central" fill="#9f7aea55" font-family="monospace" font-size="8">Best of both</text>

<!-- ROW 3: Security -->
<rect x="14" y="284" width="230" height="64" rx="3" fill="#141c2e" stroke="#1e2d40" stroke-width="0.5"/>
<text x="24" y="302" dominant-baseline="central" fill="#94a3b8" font-family="monospace" font-size="9" letter-spacing="1">03 · SECURITY BOUNDARIES</text>
<text x="24" y="322" dominant-baseline="central" fill="#4a5568" font-family="monospace" font-size="8">Blast radius control</text>

<rect x="252" y="284" width="210" height="64" rx="3" fill="#f59e0b08" stroke="#f59e0b22" stroke-width="0.5"/>
<rect x="252" y="284" width="2" height="64" fill="#f59e0b"/>
<rect x="350" y="292" width="60" height="16" rx="3" fill="#f59e0b22" stroke="#f59e0b" stroke-width="0.5"/>
<text x="380" y="300" text-anchor="middle" dominant-baseline="central" fill="#f59e0b" font-family="monospace" font-size="7" font-weight="700">❌ RISK</text>
<text x="262" y="319" dominant-baseline="central" fill="#f59e0b" font-family="monospace" font-size="9">Wide blast radius</text>
<text x="262" y="336" dominant-baseline="central" fill="#f59e0b55" font-family="monospace" font-size="8">One breach = all exposed</text>

<rect x="470" y="284" width="210" height="64" rx="3" fill="#00d4aa0d" stroke="#00d4aa33" stroke-width="0.5"/>
<rect x="470" y="284" width="2" height="64" fill="#00d4aa"/>
<rect x="568" y="292" width="60" height="16" rx="3" fill="#00d4aa22" stroke="#00d4aa" stroke-width="0.5"/>
<text x="598" y="300" text-anchor="middle" dominant-baseline="central" fill="#00d4aa" font-family="monospace" font-size="7" font-weight="700">✅ WIN</text>
<text x="480" y="319" dominant-baseline="central" fill="#00d4aa" font-family="monospace" font-size="9">Repo = boundary</text>
<text x="480" y="336" dominant-baseline="central" fill="#00d4aa55" font-family="monospace" font-size="8">Natural isolation</text>

<rect x="688" y="284" width="258" height="64" rx="3" fill="#4a556808" stroke="#4a556822" stroke-width="0.5"/>
<rect x="688" y="284" width="2" height="64" fill="#64748b"/>
<rect x="880" y="292" width="60" height="16" rx="3" fill="#64748b22" stroke="#64748b" stroke-width="0.5"/>
<text x="910" y="300" text-anchor="middle" dominant-baseline="central" fill="#94a3b8" font-family="monospace" font-size="7" font-weight="700">⚠️ OK</text>
<text x="698" y="319" dominant-baseline="central" fill="#94a3b8" font-family="monospace" font-size="9">CODEOWNERS needed</text>
<text x="698" y="336" dominant-baseline="central" fill="#94a3b855" font-family="monospace" font-size="8">Extra tooling required</text>

<!-- ROW 4: Agent boundaries -->
<rect x="14" y="356" width="230" height="64" rx="3" fill="#141c2e" stroke="#1e2d40" stroke-width="0.5"/>
<text x="24" y="374" dominant-baseline="central" fill="#94a3b8" font-family="monospace" font-size="9" letter-spacing="1">04 · AGENT BOUNDARIES</text>
<text x="24" y="394" dominant-baseline="central" fill="#4a5568" font-family="monospace" font-size="8">One agent per repo</text>

<rect x="252" y="356" width="210" height="64" rx="3" fill="#4a556808" stroke="#4a556822" stroke-width="0.5"/>
<rect x="252" y="356" width="2" height="64" fill="#64748b"/>
<rect x="350" y="364" width="60" height="16" rx="3" fill="#64748b22" stroke="#64748b" stroke-width="0.5"/>
<text x="380" y="372" text-anchor="middle" dominant-baseline="central" fill="#94a3b8" font-family="monospace" font-size="7" font-weight="700">⚠️ OK</text>
<text x="262" y="391" dominant-baseline="central" fill="#94a3b8" font-family="monospace" font-size="9">Needs discipline</text>
<text x="262" y="408" dominant-baseline="central" fill="#94a3b855" font-family="monospace" font-size="8">No structural enforcement</text>

<rect x="470" y="356" width="210" height="64" rx="3" fill="#00d4aa0d" stroke="#00d4aa33" stroke-width="0.5"/>
<rect x="470" y="356" width="2" height="64" fill="#00d4aa"/>
<rect x="568" y="364" width="60" height="16" rx="3" fill="#00d4aa22" stroke="#00d4aa" stroke-width="0.5"/>
<text x="598" y="372" text-anchor="middle" dominant-baseline="central" fill="#00d4aa" font-family="monospace" font-size="7" font-weight="700">✅ WIN</text>
<text x="480" y="391" dominant-baseline="central" fill="#00d4aa" font-family="monospace" font-size="9">Repo = boundary</text>
<text x="480" y="408" dominant-baseline="central" fill="#00d4aa55" font-family="monospace" font-size="8">Structural enforcement</text>

<rect x="688" y="356" width="258" height="64" rx="3" fill="#9f7aea0d" stroke="#9f7aea33" stroke-width="0.5"/>
<rect x="688" y="356" width="2" height="64" fill="#9f7aea"/>
<rect x="880" y="364" width="60" height="16" rx="3" fill="#00d4aa22" stroke="#00d4aa" stroke-width="0.5"/>
<text x="910" y="372" text-anchor="middle" dominant-baseline="central" fill="#00d4aa" font-family="monospace" font-size="7" font-weight="700">✅ WIN</text>
<text x="698" y="391" dominant-baseline="central" fill="#9f7aea" font-family="monospace" font-size="9">Package = boundary</text>
<text x="698" y="408" dominant-baseline="central" fill="#9f7aea55" font-family="monospace" font-size="8">Structural enforcement</text>

<!-- ROW 5: Migration cost -->
<rect x="14" y="428" width="230" height="64" rx="3" fill="#141c2e" stroke="#1e2d40" stroke-width="0.5"/>
<text x="24" y="446" dominant-baseline="central" fill="#94a3b8" font-family="monospace" font-size="9" letter-spacing="1">05 · MIGRATION COST</text>
<text x="24" y="466" dominant-baseline="central" fill="#4a5568" font-family="monospace" font-size="8">One-time investment</text>

<rect x="252" y="428" width="210" height="64" rx="3" fill="#f59e0b08" stroke="#f59e0b22" stroke-width="0.5"/>
<rect x="252" y="428" width="2" height="64" fill="#f59e0b"/>
<rect x="350" y="436" width="60" height="16" rx="3" fill="#f59e0b22" stroke="#f59e0b" stroke-width="0.5"/>
<text x="380" y="444" text-anchor="middle" dominant-baseline="central" fill="#f59e0b" font-family="monospace" font-size="7" font-weight="700">❌ HIGH</text>
<text x="262" y="463" dominant-baseline="central" fill="#f59e0b" font-family="monospace" font-size="9">Full restructure needed</text>
<text x="262" y="480" dominant-baseline="central" fill="#f59e0b55" font-family="monospace" font-size="8">Paths · CI/CD · Docker</text>

<rect x="470" y="428" width="210" height="64" rx="3" fill="#00d4aa0d" stroke="#00d4aa33" stroke-width="0.5"/>
<rect x="470" y="428" width="2" height="64" fill="#00d4aa"/>
<rect x="568" y="436" width="60" height="16" rx="3" fill="#00d4aa22" stroke="#00d4aa" stroke-width="0.5"/>
<text x="598" y="444" text-anchor="middle" dominant-baseline="central" fill="#00d4aa" font-family="monospace" font-size="7" font-weight="700">✅ ZERO</text>
<text x="480" y="463" dominant-baseline="central" fill="#00d4aa" font-family="monospace" font-size="9">Already here</text>
<text x="480" y="480" dominant-baseline="central" fill="#00d4aa55" font-family="monospace" font-size="8">No changes needed</text>

<rect x="688" y="428" width="258" height="64" rx="3" fill="#f59e0b08" stroke="#f59e0b22" stroke-width="0.5"/>
<rect x="688" y="428" width="2" height="64" fill="#f59e0b"/>
<rect x="880" y="436" width="60" height="16" rx="3" fill="#f59e0b22" stroke="#f59e0b" stroke-width="0.5"/>
<text x="910" y="444" text-anchor="middle" dominant-baseline="central" fill="#f59e0b" font-family="monospace" font-size="7" font-weight="700">❌ HIGH</text>
<text x="698" y="463" dominant-baseline="central" fill="#f59e0b" font-family="monospace" font-size="9">Tooling + restructure</text>
<text x="698" y="480" dominant-baseline="central" fill="#f59e0b55" font-family="monospace" font-size="8">Nx/Turborepo setup</text>

<!-- Score row -->
<rect x="14" y="500" width="230" height="34" rx="3" fill="#141c2e" stroke="#1e2d40" stroke-width="0.5"/>
<text x="24" y="517" dominant-baseline="central" fill="#94a3b8" font-family="monospace" font-size="9" letter-spacing="1">SCORE</text>

<rect x="252" y="500" width="210" height="34" rx="3" fill="#f59e0b0d" stroke="#f59e0b44" stroke-width="0.8"/>
<text x="357" y="517" text-anchor="middle" dominant-baseline="central" fill="#f59e0b" font-family="monospace" font-size="12" font-weight="700">1✅  3❌  1⚠️</text>

<rect x="470" y="500" width="210" height="34" rx="3" fill="#00d4aa15" stroke="#00d4aa" stroke-width="1.5"/>
<text x="575" y="517" text-anchor="middle" dominant-baseline="central" fill="#00d4aa" font-family="monospace" font-size="12" font-weight="700">4✅  1❌  0⚠️</text>

<rect x="688" y="500" width="258" height="34" rx="3" fill="#9f7aea0d" stroke="#9f7aea44" stroke-width="0.8"/>
<text x="817" y="517" text-anchor="middle" dominant-baseline="central" fill="#9f7aea" font-family="monospace" font-size="12" font-weight="700">4✅  2❌  1⚠️</text>

<!-- Decision banner -->
<rect x="14" y="542" width="932" height="56" rx="5" fill="#00d4aa08" stroke="#00d4aa" stroke-width="1.5"/>
<circle cx="34" cy="560" r="4" fill="#00d4aa"/>
<text x="46" y="556" dominant-baseline="central" fill="#00d4aa" font-family="monospace" font-size="10" font-weight="700" letter-spacing="1">GOVERNED · ADR-017 ACCEPTED</text>
<text x="46" y="574" dominant-baseline="central" fill="#00d4aa88" font-family="monospace" font-size="9">Polyrepo retained. flowpilot-docs = central skills source. Drift mitigated by delivery-flow.md. Zero migration cost.</text>

<!-- Footer -->
<text x="24" y="618" dominant-baseline="central" fill="#1e2d40" font-family="monospace" font-size="8">Nitindra Soekhai · NSCS B.V.</text>
<text x="480" y="618" text-anchor="middle" dominant-baseline="central" fill="#1e2d40" font-family="monospace" font-size="8" letter-spacing="2">GOVERNED AI ORCHESTRATION</text>
<text x="936" y="618" text-anchor="end" dominant-baseline="central" fill="#1e2d40" font-family="monospace" font-size="8">ADR-017 · May 2026</text>
</svg>
